<svg xmlns="http://www.w3.org/2000/svg" viewBox="0 0 256 256" role="img" aria-label="Goblin portrait">
  <defs><linearGradient id="bg" x1="0" y1="0" x2="1" y2="1"><stop offset="0" stop-color="#243b21"/><stop offset="1" stop-color="#080b08"/></linearGradient></defs>
  <rect width="256" height="256" rx="24" fill="url(#bg)"/>
  <path d="M48 104 18 68l67 17c21-20 64-22 91 0l62-17-30 36c10 38-18 78-80 78s-90-40-80-78Z" fill="#7da65b"/>
  <path d="M73 119c19-11 35-11 49 0M134 119c18-11 34-11 49 0" stroke="#142012" stroke-width="9" stroke-linecap="round"/>
  <circle cx="96" cy="126" r="8" fill="#f5d06f"/><circle cx="159" cy="126" r="8" fill="#f5d06f"/>
  <path d="M116 143h25l-12 17Z" fill="#31502d"/>
  <path d="M96 174c21 15 44 15 66 0" stroke="#1d251d" stroke-width="8" stroke-linecap="round"/>
  <path d="M67 214c38 22 83 22 123 0" stroke="#e6c06b" stroke-opacity=".22" stroke-width="10" stroke-linecap="round"/>
</svg>
