<svg xmlns="http://www.w3.org/2000/svg" viewBox="0 0 256 360" role="img" aria-label="Shadow ranger card art">
  <defs>
    <linearGradient id="bg" x1="0" y1="0" x2="1" y2="1">
      <stop offset="0" stop-color="#101d22"/>
      <stop offset=".56" stop-color="#16251d"/>
      <stop offset="1" stop-color="#060709"/>
    </linearGradient>
    <radialGradient id="mist" cx="56%" cy="35%" r="48%">
      <stop offset="0" stop-color="#9edbd6" stop-opacity=".55"/>
      <stop offset="1" stop-color="#9edbd6" stop-opacity="0"/>
    </radialGradient>
  </defs>
  <rect width="256" height="360" rx="18" fill="url(#bg)"/>
  <rect x="20" y="24" width="216" height="312" rx="13" fill="none" stroke="#83d2b1" stroke-opacity=".26" stroke-width="3"/>
  <circle cx="140" cy="128" r="96" fill="url(#mist)"/>
  <path d="M130 68c34 16 57 52 57 92 0 59-42 103-60 138-17-35-58-79-58-138 0-42 24-76 61-92Z" fill="#111618"/>
  <path d="M82 142c35 16 69 16 105 0-5-35-27-61-57-74-29 12-48 39-48 74Z" fill="#26372d"/>
  <path d="M63 249c56-38 95-91 117-160" fill="none" stroke="#d5f4d4" stroke-opacity=".72" stroke-width="7" stroke-linecap="round"/>
  <path d="M163 83 196 70l-14 33" fill="none" stroke="#d5f4d4" stroke-opacity=".72" stroke-width="7" stroke-linecap="round" stroke-linejoin="round"/>
  <circle cx="107" cy="145" r="5" fill="#9edbd6"/>
  <circle cx="147" cy="145" r="5" fill="#9edbd6"/>
</svg>
